<svg aria-labelledby="chart-title-mermaid-1727801383663" aria-roledescription="er" role="graphics-document document" viewBox="0 -62 886.463134765625 470" style="max-width: 886.463px; background-color: rgb(255, 255, 255);" xmlns:xlink="http://www.w3.org/1999/xlink" xmlns="http://www.w3.org/2000/svg" width="100%" id="mermaid-1727801383663"><title id="chart-title-mermaid-1727801383663">Software- and Calibration-Update of a VCU</title><style>#mermaid-1727801383663{font-family:"trebuchet ms",verdana,arial,sans-serif;font-size:16px;fill:#333;}#mermaid-1727801383663 .error-icon{fill:#552222;}#mermaid-1727801383663 .error-text{fill:#552222;stroke:#552222;}#mermaid-1727801383663 .edge-thickness-normal{stroke-width:2px;}#mermaid-1727801383663 .edge-thickness-thick{stroke-width:3.5px;}#mermaid-1727801383663 .edge-pattern-solid{stroke-dasharray:0;}#mermaid-1727801383663 .edge-pattern-dashed{stroke-dasharray:3;}#mermaid-1727801383663 .edge-pattern-dotted{stroke-dasharray:2;}#mermaid-1727801383663 .marker{fill:#333333;stroke:#333333;}#mermaid-1727801383663 .marker.cross{stroke:#333333;}#mermaid-1727801383663 svg{font-family:"trebuchet ms",verdana,arial,sans-serif;font-size:16px;}#mermaid-1727801383663 .entityBox{fill:#ECECFF;stroke:#9370DB;}#mermaid-1727801383663 .attributeBoxOdd{fill:#ffffff;stroke:#9370DB;}#mermaid-1727801383663 .attributeBoxEven{fill:#f2f2f2;stroke:#9370DB;}#mermaid-1727801383663 .relationshipLabelBox{fill:hsl(80, 100%, 96.2745098039%);opacity:0.7;background-color:hsl(80, 100%, 96.2745098039%);}#mermaid-1727801383663 .relationshipLabelBox rect{opacity:0.5;}#mermaid-1727801383663 .relationshipLine{stroke:#333333;}#mermaid-1727801383663 .entityTitleText{text-anchor:middle;font-size:18px;fill:#333;}#mermaid-1727801383663 #MD_PARENT_START{fill:#f5f5f5!important;stroke:#333333!important;stroke-width:1;}#mermaid-1727801383663 #MD_PARENT_END{fill:#f5f5f5!important;stroke:#333333!important;stroke-width:1;}#mermaid-1727801383663 :root{--mermaid-font-family:"trebuchet ms",verdana,arial,sans-serif;}</style><g/><defs><marker orient="auto" markerHeight="240" markerWidth="190" refY="7" refX="0" id="MD_PARENT_START"><path d="M 18,7 L9,13 L1,7 L9,1 Z"/></marker></defs><defs><marker orient="auto" markerHeight="28" markerWidth="20" refY="7" refX="19" id="MD_PARENT_END"><path d="M 18,7 L9,13 L1,7 L9,1 Z"/></marker></defs><defs><marker orient="auto" markerHeight="18" markerWidth="18" refY="9" refX="0" id="ONLY_ONE_START"><path d="M9,0 L9,18 M15,0 L15,18" fill="none" stroke="gray"/></marker></defs><defs><marker orient="auto" markerHeight="18" markerWidth="18" refY="9" refX="18" id="ONLY_ONE_END"><path d="M3,0 L3,18 M9,0 L9,18" fill="none" stroke="gray"/></marker></defs><defs><marker orient="auto" markerHeight="18" markerWidth="30" refY="9" refX="0" id="ZERO_OR_ONE_START"><circle r="6" cy="9" cx="21" fill="white" stroke="gray"/><path d="M9,0 L9,18" fill="none" stroke="gray"/></marker></defs><defs><marker orient="auto" markerHeight="18" markerWidth="30" refY="9" refX="30" id="ZERO_OR_ONE_END"><circle r="6" cy="9" cx="9" fill="white" stroke="gray"/><path d="M21,0 L21,18" fill="none" stroke="gray"/></marker></defs><defs><marker orient="auto" markerHeight="36" markerWidth="45" refY="18" refX="18" id="ONE_OR_MORE_START"><path d="M0,18 Q 18,0 36,18 Q 18,36 0,18 M42,9 L42,27" fill="none" stroke="gray"/></marker></defs><defs><marker orient="auto" markerHeight="36" markerWidth="45" refY="18" refX="27" id="ONE_OR_MORE_END"><path d="M3,9 L3,27 M9,18 Q27,0 45,18 Q27,36 9,18" fill="none" stroke="gray"/></marker></defs><defs><marker orient="auto" markerHeight="36" markerWidth="57" refY="18" refX="18" id="ZERO_OR_MORE_START"><circle r="6" cy="18" cx="48" fill="white" stroke="gray"/><path d="M0,18 Q18,0 36,18 Q18,36 0,18" fill="none" stroke="gray"/></marker></defs><defs><marker orient="auto" markerHeight="36" markerWidth="57" refY="18" refX="39" id="ZERO_OR_MORE_END"><circle r="6" cy="18" cx="9" fill="white" stroke="gray"/><path d="M21,18 Q39,0 57,18 Q39,36 21,18" fill="none" stroke="gray"/></marker></defs><path style="stroke: gray; fill: none;" marker-start="url(#ONE_OR_MORE_START)" marker-end="url(#ONE_OR_MORE_END)" stroke-dasharray="8,8" d="M88.89453125,154L88.89453125,162.33333333333334C88.89453125,170.66666666666666,88.89453125,187.33333333333334,102.49372668144031,207.66666666666666C116.09292211288061,228,143.29131297576123,252,156.89050840720154,264L170.48970383864184,276" class="er relationshipLine"/><path style="stroke: gray; fill: none;" marker-start="url(#ONE_OR_MORE_START)" marker-end="url(#ONE_OR_MORE_END)" stroke-dasharray="8,8" d="M311.83473088191107,132L303.3637405786759,144C294.89275027544073,156,277.9507696689704,180,265.42623040614984,204C252.90169114332934,228,244.79459322415866,252,240.74104426457333,264L236.68749530498798,276" class="er relationshipLine"/><path style="stroke: gray; fill: none;" marker-start="url(#ONE_OR_MORE_START)" marker-end="url(#ZERO_OR_MORE_END)" stroke-dasharray="8,8" d="M388.757807804988,132L400.7996380145733,144C412.8414682241587,156,436.92512864332934,180,454.87863976459556,205.83333333333334C472.83215088586184,231.66666666666666,484.6555127092236,259.3333333333333,490.56719362090456,273.1666666666667L496.47887453258545,287" class="er relationshipLine"/><path style="stroke: gray; fill: none;" marker-start="url(#ONLY_ONE_START)" marker-end="url(#ONE_OR_MORE_END)" stroke-dasharray="8,8" d="M574.9987030029297,112.67020911895783L539.3337173461914,127.89184093246486C503.6687316894531,143.11347274597188,432.33876037597656,173.55673637298594,382.3638155032427,200.77836818649294C332.3888706305088,228,303.76895219851764,252,289.45899298252203,264L275.14903376652643,276" class="er relationshipLine"/><path style="stroke: gray; fill: none;" marker-start="url(#ONLY_ONE_START)" marker-end="url(#ONE_OR_MORE_END)" stroke-dasharray="8,8" d="M654.375956608699,132L659.5041617369042,144C664.6323668651092,156,674.8887771215194,180,685.2500035212591,200.33333333333334C695.6112299209987,220.66666666666666,706.0772724640675,237.33333333333334,711.310293735602,245.66666666666666L716.5433150071365,254" class="er relationshipLine"/><path style="stroke: gray; fill: none;" marker-start="url(#ONLY_ONE_START)" marker-end="url(#ONE_OR_MORE_END)" stroke-dasharray="8,8" d="M695.2916717529297,127.56651299241176L714.1791941324869,140.30542749367646C733.0667165120443,153.04434199494116,770.8417612711588,178.52217099747057,786.1680300894626,199.59441883206864C801.4942989077663,220.66666666666666,794.3717917852591,237.33333333333334,790.8105382240057,245.66666666666666L787.2492846627521,254" class="er relationshipLine"/><path style="stroke: gray; fill: none;" marker-start="url(#ONLY_ONE_START)" marker-end="url(#ZERO_OR_MORE_END)" stroke-dasharray="8,8" d="M615.7865759042593,132L610.6242795112805,144C605.4619831183018,156,595.1373903323442,180,581.2489789761709,205.83333333333334C567.3605676199976,231.66666666666666,549.9083376936084,259.3333333333333,541.1822227304139,273.1666666666667L532.4561077672192,287" class="er relationshipLine"/><g transform="translate(155.3907241821289,276 )" id="entity-SoftwareRelease-3ac27bfa-743e-5033-a35a-0d1e6d036811"><rect height="90" width="132.19192504882812" y="0" x="0" class="er entityBox"/><text style="dominant-baseline: middle; text-anchor: middle; font-size: 12px;" transform="translate(66.09596252441406,12)" y="0" x="0" id="text-entity-SoftwareRelease-3ac27bfa-743e-5033-a35a-0d1e6d036811" class="er entityLabel">Software-Release</text><rect height="22" width="85.3778076171875" y="24" x="0" class="er attributeBoxOdd"/><text style="dominant-baseline: middle; font-size: 10.2px;" transform="translate(5,35)" y="0" x="0" id="text-entity-SoftwareRelease-3ac27bfa-743e-5033-a35a-0d1e6d036811-attr-1-type" class="er entityLabel">Type</text><rect height="22" width="46.814117431640625" y="24" x="85.3778076171875" class="er attributeBoxOdd"/><text style="dominant-baseline: middle; font-size: 10.2px;" transform="translate(90.3778076171875,35)" y="0" x="0" id="text-entity-SoftwareRelease-3ac27bfa-743e-5033-a35a-0d1e6d036811-attr-1-name" class="er entityLabel">Data</text><rect height="22" width="85.3778076171875" y="46" x="0" class="er attributeBoxEven"/><text style="dominant-baseline: middle; font-size: 10.2px;" transform="translate(5,57)" y="0" x="0" id="text-entity-SoftwareRelease-3ac27bfa-743e-5033-a35a-0d1e6d036811-attr-2-type" class="er entityLabel">Executable</text><rect height="22" width="46.814117431640625" y="46" x="85.3778076171875" class="er attributeBoxEven"/><text style="dominant-baseline: middle; font-size: 10.2px;" transform="translate(90.3778076171875,57)" y="0" x="0" id="text-entity-SoftwareRelease-3ac27bfa-743e-5033-a35a-0d1e6d036811-attr-2-name" class="er entityLabel">pgv-File</text><rect height="22" width="85.3778076171875" y="68" x="0" class="er attributeBoxOdd"/><text style="dominant-baseline: middle; font-size: 10.2px;" transform="translate(5,79)" y="0" x="0" id="text-entity-SoftwareRelease-3ac27bfa-743e-5033-a35a-0d1e6d036811-attr-3-type" class="er entityLabel">Base-Calibration</text><rect height="22" width="46.814117431640625" y="68" x="85.3778076171875" class="er attributeBoxOdd"/><text style="dominant-baseline: middle; font-size: 10.2px;" transform="translate(90.3778076171875,79)" y="0" x="0" id="text-entity-SoftwareRelease-3ac27bfa-743e-5033-a35a-0d1e6d036811-attr-3-name" class="er entityLabel">dtv-File</text></g><g transform="translate(679.728515625,254 )" id="entity-VCU-0ec8b1bb-4c16-5557-a3f9-0c79499f06b5"><rect height="134" width="157.77658081054688" y="0" x="0" class="er entityBox"/><text style="dominant-baseline: middle; text-anchor: middle; font-size: 12px;" transform="translate(78.88829040527344,12)" y="0" x="0" id="text-entity-VCU-0ec8b1bb-4c16-5557-a3f9-0c79499f06b5" class="er entityLabel">VCU</text><rect height="22" width="103.18296813964844" y="24" x="0" class="er attributeBoxOdd"/><text style="dominant-baseline: middle; font-size: 10.2px;" transform="translate(5,35)" y="0" x="0" id="text-entity-VCU-0ec8b1bb-4c16-5557-a3f9-0c79499f06b5-attr-1-type" class="er entityLabel">Type</text><rect height="22" width="54.59361267089844" y="24" x="103.18296813964844" class="er attributeBoxOdd"/><text style="dominant-baseline: middle; font-size: 10.2px;" transform="translate(108.18296813964844,35)" y="0" x="0" id="text-entity-VCU-0ec8b1bb-4c16-5557-a3f9-0c79499f06b5-attr-1-name" class="er entityLabel">Hardware</text><rect height="22" width="103.18296813964844" y="46" x="0" class="er attributeBoxEven"/><text style="dominant-baseline: middle; font-size: 10.2px;" transform="translate(5,57)" y="0" x="0" id="text-entity-VCU-0ec8b1bb-4c16-5557-a3f9-0c79499f06b5-attr-2-type" class="er entityLabel">Executable</text><rect height="22" width="54.59361267089844" y="46" x="103.18296813964844" class="er attributeBoxEven"/><text style="dominant-baseline: middle; font-size: 10.2px;" transform="translate(108.18296813964844,57)" y="0" x="0" id="text-entity-VCU-0ec8b1bb-4c16-5557-a3f9-0c79499f06b5-attr-2-name" class="er entityLabel">pgv-File</text><rect height="22" width="103.18296813964844" y="68" x="0" class="er attributeBoxOdd"/><text style="dominant-baseline: middle; font-size: 10.2px;" transform="translate(5,79)" y="0" x="0" id="text-entity-VCU-0ec8b1bb-4c16-5557-a3f9-0c79499f06b5-attr-3-type" class="er entityLabel">Base-Calibration</text><rect height="22" width="54.59361267089844" y="68" x="103.18296813964844" class="er attributeBoxOdd"/><text style="dominant-baseline: middle; font-size: 10.2px;" transform="translate(108.18296813964844,79)" y="0" x="0" id="text-entity-VCU-0ec8b1bb-4c16-5557-a3f9-0c79499f06b5-attr-3-name" class="er entityLabel">dtv-File</text><rect height="22" width="103.18296813964844" y="90" x="0" class="er attributeBoxEven"/><text style="dominant-baseline: middle; font-size: 10.2px;" transform="translate(5,101)" y="0" x="0" id="text-entity-VCU-0ec8b1bb-4c16-5557-a3f9-0c79499f06b5-attr-4-type" class="er entityLabel">Calibration-Updates</text><rect height="22" width="54.59361267089844" y="90" x="103.18296813964844" class="er attributeBoxEven"/><text style="dominant-baseline: middle; font-size: 10.2px;" transform="translate(108.18296813964844,101)" y="0" x="0" id="text-entity-VCU-0ec8b1bb-4c16-5557-a3f9-0c79499f06b5-attr-4-name" class="er entityLabel">m-Files</text><rect height="22" width="103.18296813964844" y="112" x="0" class="er attributeBoxOdd"/><text style="dominant-baseline: middle; font-size: 10.2px;" transform="translate(5,123)" y="0" x="0" id="text-entity-VCU-0ec8b1bb-4c16-5557-a3f9-0c79499f06b5-attr-5-type" class="er entityLabel">Updated-Calibration</text><rect height="22" width="54.59361267089844" y="112" x="103.18296813964844" class="er attributeBoxOdd"/><text style="dominant-baseline: middle; font-size: 10.2px;" transform="translate(108.18296813964844,123)" y="0" x="0" id="text-entity-VCU-0ec8b1bb-4c16-5557-a3f9-0c79499f06b5-attr-5-name" class="er entityLabel">dtv-File</text></g><g transform="translate(442.2890625,287 )" id="entity-CalibrationUpdates-fd6a1cb2-71cb-5269-8943-b73a13165c46"><rect height="68" width="137.439453125" y="0" x="0" class="er entityBox"/><text style="dominant-baseline: middle; text-anchor: middle; font-size: 12px;" transform="translate(68.7197265625,12)" y="0" x="0" id="text-entity-CalibrationUpdates-fd6a1cb2-71cb-5269-8943-b73a13165c46" class="er entityLabel">Calibration-Updates</text><rect height="22" width="68.50557708740234" y="24" x="0" class="er attributeBoxOdd"/><text style="dominant-baseline: middle; font-size: 10.2px;" transform="translate(5,35)" y="0" x="0" id="text-entity-CalibrationUpdates-fd6a1cb2-71cb-5269-8943-b73a13165c46-attr-1-type" class="er entityLabel">Type</text><rect height="22" width="68.93387603759766" y="24" x="68.50557708740234" class="er attributeBoxOdd"/><text style="dominant-baseline: middle; font-size: 10.2px;" transform="translate(73.50557708740234,35)" y="0" x="0" id="text-entity-CalibrationUpdates-fd6a1cb2-71cb-5269-8943-b73a13165c46-attr-1-name" class="er entityLabel">Data</text><rect height="22" width="68.50557708740234" y="46" x="0" class="er attributeBoxEven"/><text style="dominant-baseline: middle; font-size: 10.2px;" transform="translate(5,57)" y="0" x="0" id="text-entity-CalibrationUpdates-fd6a1cb2-71cb-5269-8943-b73a13165c46-attr-2-type" class="er entityLabel">Format</text><rect height="22" width="68.93387603759766" y="46" x="68.50557708740234" class="er attributeBoxEven"/><text style="dominant-baseline: middle; font-size: 10.2px;" transform="translate(73.50557708740234,57)" y="0" x="0" id="text-entity-CalibrationUpdates-fd6a1cb2-71cb-5269-8943-b73a13165c46-attr-2-name" class="er entityLabel">m-Files</text></g><g transform="translate(20,20 )" id="entity-SoftwareDeveloper-499120f3-2b5a-55c8-8bf8-8b9733ebbd11"><rect height="134" width="137.7890625" y="0" x="0" class="er entityBox"/><text style="dominant-baseline: middle; text-anchor: middle; font-size: 12px;" transform="translate(68.89453125,12)" y="0" x="0" id="text-entity-SoftwareDeveloper-499120f3-2b5a-55c8-8bf8-8b9733ebbd11" class="er entityLabel">Software-Developer</text><rect height="22" width="42.73466491699219" y="24" x="0" class="er attributeBoxOdd"/><text style="dominant-baseline: middle; font-size: 10.2px;" transform="translate(5,35)" y="0" x="0" id="text-entity-SoftwareDeveloper-499120f3-2b5a-55c8-8bf8-8b9733ebbd11-attr-1-type" class="er entityLabel">Type</text><rect height="22" width="95.05439758300781" y="24" x="42.73466491699219" class="er attributeBoxOdd"/><text style="dominant-baseline: middle; font-size: 10.2px;" transform="translate(47.73466491699219,35)" y="0" x="0" id="text-entity-SoftwareDeveloper-499120f3-2b5a-55c8-8bf8-8b9733ebbd11-attr-1-name" class="er entityLabel">Actor</text><rect height="22" width="42.73466491699219" y="46" x="0" class="er attributeBoxEven"/><text style="dominant-baseline: middle; font-size: 10.2px;" transform="translate(5,57)" y="0" x="0" id="text-entity-SoftwareDeveloper-499120f3-2b5a-55c8-8bf8-8b9733ebbd11-attr-2-type" class="er entityLabel">Uses</text><rect height="22" width="95.05439758300781" y="46" x="42.73466491699219" class="er attributeBoxEven"/><text style="dominant-baseline: middle; font-size: 10.2px;" transform="translate(47.73466491699219,57)" y="0" x="0" id="text-entity-SoftwareDeveloper-499120f3-2b5a-55c8-8bf8-8b9733ebbd11-attr-2-name" class="er entityLabel">Matlab-Simulink</text><rect height="22" width="42.73466491699219" y="68" x="0" class="er attributeBoxOdd"/><text style="dominant-baseline: middle; font-size: 10.2px;" transform="translate(5,79)" y="0" x="0" id="text-entity-SoftwareDeveloper-499120f3-2b5a-55c8-8bf8-8b9733ebbd11-attr-3-type" class="er entityLabel">Uses</text><rect height="22" width="95.05439758300781" y="68" x="42.73466491699219" class="er attributeBoxOdd"/><text style="dominant-baseline: middle; font-size: 10.2px;" transform="translate(47.73466491699219,79)" y="0" x="0" id="text-entity-SoftwareDeveloper-499120f3-2b5a-55c8-8bf8-8b9733ebbd11-attr-3-name" class="er entityLabel">System-Monitor</text><rect height="22" width="42.73466491699219" y="90" x="0" class="er attributeBoxEven"/><text style="dominant-baseline: middle; font-size: 10.2px;" transform="translate(5,101)" y="0" x="0" id="text-entity-SoftwareDeveloper-499120f3-2b5a-55c8-8bf8-8b9733ebbd11-attr-4-type" class="er entityLabel">Uses</text><rect height="22" width="95.05439758300781" y="90" x="42.73466491699219" class="er attributeBoxEven"/><text style="dominant-baseline: middle; font-size: 10.2px;" transform="translate(47.73466491699219,101)" y="0" x="0" id="text-entity-SoftwareDeveloper-499120f3-2b5a-55c8-8bf8-8b9733ebbd11-attr-4-name" class="er entityLabel">Gitlab</text><rect height="22" width="42.73466491699219" y="112" x="0" class="er attributeBoxOdd"/><text style="dominant-baseline: middle; font-size: 10.2px;" transform="translate(5,123)" y="0" x="0" id="text-entity-SoftwareDeveloper-499120f3-2b5a-55c8-8bf8-8b9733ebbd11-attr-5-type" class="er entityLabel">Uses</text><rect height="22" width="95.05439758300781" y="112" x="42.73466491699219" class="er attributeBoxOdd"/><text style="dominant-baseline: middle; font-size: 10.2px;" transform="translate(47.73466491699219,123)" y="0" x="0" id="text-entity-SoftwareDeveloper-499120f3-2b5a-55c8-8bf8-8b9733ebbd11-attr-5-name" class="er entityLabel">DevOps</text></g><g transform="translate(268.26696014404297,42 )" id="entity-PerformanceEngineer-58ad164d-b799-5a37-8529-c7dda06a1eec"><rect height="90" width="150.66796875" y="0" x="0" class="er entityBox"/><text style="dominant-baseline: middle; text-anchor: middle; font-size: 12px;" transform="translate(75.333984375,12)" y="0" x="0" id="text-entity-PerformanceEngineer-58ad164d-b799-5a37-8529-c7dda06a1eec" class="er entityLabel">Performance-Engineer</text><rect height="22" width="36.21991729736328" y="24" x="0" class="er attributeBoxOdd"/><text style="dominant-baseline: middle; font-size: 10.2px;" transform="translate(5,35)" y="0" x="0" id="text-entity-PerformanceEngineer-58ad164d-b799-5a37-8529-c7dda06a1eec-attr-1-type" class="er entityLabel">Type</text><rect height="22" width="114.44805145263672" y="24" x="36.21991729736328" class="er attributeBoxOdd"/><text style="dominant-baseline: middle; font-size: 10.2px;" transform="translate(41.21991729736328,35)" y="0" x="0" id="text-entity-PerformanceEngineer-58ad164d-b799-5a37-8529-c7dda06a1eec-attr-1-name" class="er entityLabel">Actor</text><rect height="22" width="36.21991729736328" y="46" x="0" class="er attributeBoxEven"/><text style="dominant-baseline: middle; font-size: 10.2px;" transform="translate(5,57)" y="0" x="0" id="text-entity-PerformanceEngineer-58ad164d-b799-5a37-8529-c7dda06a1eec-attr-2-type" class="er entityLabel">Uses</text><rect height="22" width="114.44805145263672" y="46" x="36.21991729736328" class="er attributeBoxEven"/><text style="dominant-baseline: middle; font-size: 10.2px;" transform="translate(41.21991729736328,57)" y="0" x="0" id="text-entity-PerformanceEngineer-58ad164d-b799-5a37-8529-c7dda06a1eec-attr-2-name" class="er entityLabel">Shared-Drive</text><rect height="22" width="36.21991729736328" y="68" x="0" class="er attributeBoxOdd"/><text style="dominant-baseline: middle; font-size: 10.2px;" transform="translate(5,79)" y="0" x="0" id="text-entity-PerformanceEngineer-58ad164d-b799-5a37-8529-c7dda06a1eec-attr-3-type" class="er entityLabel">Uses</text><rect height="22" width="114.44805145263672" y="68" x="36.21991729736328" class="er attributeBoxOdd"/><text style="dominant-baseline: middle; font-size: 10.2px;" transform="translate(41.21991729736328,79)" y="0" x="0" id="text-entity-PerformanceEngineer-58ad164d-b799-5a37-8529-c7dda06a1eec-attr-3-name" class="er entityLabel">Excel-Calibration-Tool</text></g><g transform="translate(574.9987030029297,42 )" id="entity-SystemEngineer-fd5f967d-ef53-5332-acd6-e702b8f8d43c"><rect height="90" width="120.29296875" y="0" x="0" class="er entityBox"/><text style="dominant-baseline: middle; text-anchor: middle; font-size: 12px;" transform="translate(60.146484375,12)" y="0" x="0" id="text-entity-SystemEngineer-fd5f967d-ef53-5332-acd6-e702b8f8d43c" class="er entityLabel">System-Engineer</text><rect height="22" width="35.57929229736328" y="24" x="0" class="er attributeBoxOdd"/><text style="dominant-baseline: middle; font-size: 10.2px;" transform="translate(5,35)" y="0" x="0" id="text-entity-SystemEngineer-fd5f967d-ef53-5332-acd6-e702b8f8d43c-attr-1-type" class="er entityLabel">Type</text><rect height="22" width="84.71367645263672" y="24" x="35.57929229736328" class="er attributeBoxOdd"/><text style="dominant-baseline: middle; font-size: 10.2px;" transform="translate(40.57929229736328,35)" y="0" x="0" id="text-entity-SystemEngineer-fd5f967d-ef53-5332-acd6-e702b8f8d43c-attr-1-name" class="er entityLabel">Actor</text><rect height="22" width="35.57929229736328" y="46" x="0" class="er attributeBoxEven"/><text style="dominant-baseline: middle; font-size: 10.2px;" transform="translate(5,57)" y="0" x="0" id="text-entity-SystemEngineer-fd5f967d-ef53-5332-acd6-e702b8f8d43c-attr-2-type" class="er entityLabel">Uses</text><rect height="22" width="84.71367645263672" y="46" x="35.57929229736328" class="er attributeBoxEven"/><text style="dominant-baseline: middle; font-size: 10.2px;" transform="translate(40.57929229736328,57)" y="0" x="0" id="text-entity-SystemEngineer-fd5f967d-ef53-5332-acd6-e702b8f8d43c-attr-2-name" class="er entityLabel">Shared-Drive</text><rect height="22" width="35.57929229736328" y="68" x="0" class="er attributeBoxOdd"/><text style="dominant-baseline: middle; font-size: 10.2px;" transform="translate(5,79)" y="0" x="0" id="text-entity-SystemEngineer-fd5f967d-ef53-5332-acd6-e702b8f8d43c-attr-3-type" class="er entityLabel">Uses</text><rect height="22" width="84.71367645263672" y="68" x="35.57929229736328" class="er attributeBoxOdd"/><text style="dominant-baseline: middle; font-size: 10.2px;" transform="translate(40.57929229736328,79)" y="0" x="0" id="text-entity-SystemEngineer-fd5f967d-ef53-5332-acd6-e702b8f8d43c-attr-3-name" class="er entityLabel">System-Monitor</text></g><rect height="14" width="39.7578125" y="216.45274353027344" x="95.021728515625" class="er relationshipLabelBox"/><text style="text-anchor: middle; dominant-baseline: middle; font-size: 12px;" y="223.45274353027344" x="114.900634765625" id="rel1" class="er relationshipLabel">creates</text><rect height="14" width="44.5390625" y="193.4160919189453" x="245.05923461914062" class="er relationshipLabelBox"/><text style="text-anchor: middle; dominant-baseline: middle; font-size: 12px;" y="200.4160919189453" x="267.3287658691406" id="rel2" class="er relationshipLabel">receives</text><rect height="14" width="39.7578125" y="195.6202850341797" x="432.72882080078125" class="er relationshipLabelBox"/><text style="text-anchor: middle; dominant-baseline: middle; font-size: 12px;" y="202.6202850341797" x="452.60772705078125" id="rel3" class="er relationshipLabel">creates</text><rect height="14" width="44.5390625" y="175.35194396972656" x="395.9579162597656" class="er relationshipLabelBox"/><text style="text-anchor: middle; dominant-baseline: middle; font-size: 12px;" y="182.35194396972656" x="418.2274475097656" id="rel4" class="er relationshipLabel">receives</text><rect height="14" width="187.029296875" y="187.5890350341797" x="588.8569946289062" class="er relationshipLabelBox"/><text style="text-anchor: middle; dominant-baseline: middle; font-size: 12px;" y="194.5890350341797" x="682.3716430664062" id="rel5" class="er relationshipLabel">Upload&lt;br/&gt;Software&lt;br/&gt;Release</text><rect height="14" width="200.92578125" y="171.5933837890625" x="665.472900390625" class="er relationshipLabelBox"/><text style="text-anchor: middle; dominant-baseline: middle; font-size: 12px;" y="178.5933837890625" x="765.935791015625" id="rel6" class="er relationshipLabel">Upload&lt;br/&gt;Calibration&lt;br/&gt;Updates</text><rect height="14" width="44.5390625" y="204.6208038330078" x="555.8264770507812" class="er relationshipLabelBox"/><text style="text-anchor: middle; dominant-baseline: middle; font-size: 12px;" y="211.6208038330078" x="578.0960083007812" id="rel7" class="er relationshipLabel">receives</text><text class="entityTitleText" y="-25" x="443.2315673828125">Software- and Calibration-Update of a VCU</text></svg>