<?xml version="1.0" encoding="UTF-8" standalone="no"?>
<!DOCTYPE svg PUBLIC "-//W3C//DTD SVG 1.0//EN" "http://www.w3.org/TR/2001/REC-SVG-20010904/DTD/svg10.dtd">
<!-- Created with Inkscape (http://www.inkscape.org/) by Steadfast-->
<svg
   xmlns:svg="http://www.w3.org/2000/svg"
   xmlns="http://www.w3.org/2000/svg"
   xmlns:xlink="http://www.w3.org/1999/xlink"
   version="1.0"
   width="500"
   height="466"
   id="svg2460">
  <defs
     id="defs2462">
    <radialGradient
       cx="0"
       cy="0"
       r="1"
       fx="0"
       fy="0"
       id="radialGradient63"
       gradientUnits="userSpaceOnUse"
       gradientTransform="matrix(13.233719,0,0,-13.233719,216.27345,86.313217)"
       spreadMethod="pad">
      <stop
         id="stop65"
         style="stop-color:#ffffff;stop-opacity:1"
         offset="0" />
      <stop
         id="stop67"
         style="stop-color:#0b3e93;stop-opacity:1"
         offset="0.99047899" />
      <stop
         id="stop69"
         style="stop-color:#0b3e93;stop-opacity:1"
         offset="1" />
    </radialGradient>
    <radialGradient
       cx="0"
       cy="0"
       r="1"
       fx="0"
       fy="0"
       id="radialGradient2498"
       xlink:href="#radialGradient63"
       gradientUnits="userSpaceOnUse"
       gradientTransform="matrix(13.233719,0,0,-13.233719,216.27345,86.313217)"
       spreadMethod="pad" />
  </defs>
  <g
     id="layer1">
    <g
       transform="matrix(11.095059,0,0,11.095059,-1430.1089,-1996.3703)"
       id="g2485">
      <g
         transform="matrix(1.25,0,0,-1.25,168.66082,186.31649)"
         id="g39">
        <path
           d="M 0,0 L 0,-10.499 L -0.014,-11.209 L -0.076,-11.904 L -0.17,-12.594 L -0.293,-13.271 L -0.449,-13.937 L -0.634,-14.6 L -0.851,-15.233 L -1.097,-15.867 L -1.376,-16.468 L -1.684,-17.054 L -2.005,-17.626 L -2.379,-18.199 L -2.748,-18.738 L -3.164,-19.248 L -3.599,-19.755 L -4.044,-20.232 L -4.521,-20.681 L -5.032,-21.112 L -5.543,-21.533 L -6.082,-21.902 L -6.654,-22.256 L -7.226,-22.597 L -7.827,-22.904 L -8.428,-23.183 L -9.061,-23.415 L -9.681,-23.633 L -10.343,-23.817 L -11.005,-23.968 L -11.686,-24.091 L -12.381,-24.186 L -13.077,-24.247 L -13.786,-24.262 L -14.495,-24.247 L -15.205,-24.186 L -15.886,-24.091 L -16.562,-23.968 L -17.229,-23.817 L -17.877,-23.633 L -18.511,-23.415 L -19.14,-23.183 L -19.745,-22.904 L -20.346,-22.597 L -20.918,-22.256 L -21.471,-21.902 L -22.029,-21.533 L -22.54,-21.112 L -23.046,-20.681 L -23.524,-20.232 L -23.973,-19.755 L -24.403,-19.248 L -24.824,-18.738 L -25.193,-18.199 L -25.562,-17.626 L -25.888,-17.054 L -26.196,-16.468 L -26.475,-15.867 L -26.721,-15.233 L -26.938,-14.6 L -27.123,-13.937 L -27.279,-13.271 L -27.402,-12.594 L -27.492,-11.904 L -27.539,-11.209 L -27.572,-10.499 L -27.572,0.014 L -27.232,0.43 L -26.891,0.832 L -26.551,1.22 L -26.182,1.603 L -26.182,-10.499 L -26.168,-11.147 L -26.12,-11.781 L -26.04,-12.377 L -25.936,-12.996 L -25.794,-13.597 L -25.624,-14.183 L -25.425,-14.756 L -25.193,-15.323 L -24.962,-15.867 L -24.682,-16.392 L -24.375,-16.917 L -24.049,-17.423 L -23.727,-17.905 L -23.339,-18.383 L -22.956,-18.828 L -22.54,-19.248 L -22.119,-19.665 L -21.656,-20.048 L -21.197,-20.402 L -20.715,-20.757 L -20.209,-21.083 L -19.684,-21.391 L -19.159,-21.67 L -18.601,-21.902 L -18.047,-22.119 L -17.475,-22.318 L -16.874,-22.488 L -16.288,-22.625 L -15.668,-22.734 L -15.049,-22.81 L -14.42,-22.857 L -13.786,-22.876 L -13.152,-22.857 L -12.519,-22.81 L -11.904,-22.734 L -11.284,-22.625 L -10.698,-22.488 L -10.097,-22.318 L -9.539,-22.119 L -8.967,-21.902 L -8.414,-21.67 L -7.889,-21.391 L -7.364,-21.083 L -6.853,-20.757 L -6.375,-20.402 L -5.898,-20.048 L -5.448,-19.665 L -5.032,-19.248 L -4.616,-18.828 L -4.214,-18.383 L -3.859,-17.905 L -3.519,-17.423 L -3.197,-16.917 L -2.885,-16.392 L -2.611,-15.867 L -2.379,-15.323 L -2.147,-14.756 L -1.944,-14.183 L -1.774,-13.597 L -1.636,-12.996 L -1.528,-12.377 L -1.452,-11.781 L -1.405,-11.147 L -1.39,-10.499 L -1.39,1.603 L -1.036,1.22 L -0.681,0.832 L -0.341,0.416 L 0,0 z"
           id="path41"
           style="fill:#0d3d92;fill-opacity:1;fill-rule:nonzero;stroke:none" />
      </g>
      <g
         transform="matrix(1.25,0,0,-1.25,138.63544,199.44049)"
         id="g43">
        <path
           d="M 0,0 L 0,13.985 L 0.326,14.235 L 0.667,14.448 L 1.022,14.68 L 1.376,14.897 L 1.376,0 L 1.39,-0.463 L 1.419,-0.908 L 1.48,-1.357 L 1.561,-1.783 L 1.669,-2.218 L 1.778,-2.634 L 1.915,-3.036 L 2.071,-3.438 L 2.256,-3.84 L 2.455,-4.209 L 2.672,-4.578 L 2.904,-4.952 L 3.136,-5.287 L 3.396,-5.614 L 3.689,-5.935 L 3.982,-6.247 L 4.294,-6.541 L 4.602,-6.834 L 4.942,-7.08 L 5.297,-7.326 L 5.652,-7.557 L 6.006,-7.775 L 6.389,-7.974 L 6.791,-8.144 L 7.193,-8.314 L 7.595,-8.451 L 8.026,-8.56 L 8.461,-8.655 L 8.877,-8.73 L 9.326,-8.792 L 9.79,-8.825 L 10.234,-8.839 L 10.684,-8.825 L 11.147,-8.792 L 11.592,-8.73 L 12.013,-8.655 L 12.443,-8.56 L 12.873,-8.451 L 13.275,-8.314 L 13.677,-8.144 L 14.079,-7.974 L 14.467,-7.775 L 14.822,-7.557 L 15.191,-7.326 L 15.531,-7.08 L 15.872,-6.834 L 16.179,-6.541 L 16.487,-6.247 L 16.794,-5.935 L 17.073,-5.614 L 17.319,-5.287 L 17.57,-4.952 L 17.801,-4.578 L 18.014,-4.209 L 18.217,-3.84 L 18.402,-3.438 L 18.553,-3.036 L 18.695,-2.634 L 18.804,-2.218 L 18.913,-1.783 L 18.988,-1.357 L 19.05,-0.908 L 19.078,-0.463 L 19.097,0 L 19.097,14.897 L 19.452,14.68 L 19.807,14.448 L 20.128,14.235 L 20.469,13.985 L 20.469,0 L 20.454,-0.525 L 20.421,-1.05 L 20.346,-1.556 L 20.256,-2.062 L 20.147,-2.559 L 20.024,-3.036 L 19.854,-3.514 L 19.669,-3.977 L 19.466,-4.427 L 19.234,-4.871 L 18.988,-5.306 L 18.709,-5.704 L 18.43,-6.106 L 18.137,-6.508 L 17.801,-6.881 L 17.461,-7.217 L 17.12,-7.557 L 16.751,-7.884 L 16.349,-8.191 L 15.947,-8.47 L 15.545,-8.73 L 15.115,-8.976 L 14.666,-9.208 L 14.216,-9.411 L 13.753,-9.596 L 13.275,-9.766 L 12.798,-9.889 L 12.306,-9.998 L 11.795,-10.092 L 11.284,-10.168 L 10.759,-10.196 L 10.234,-10.215 L 9.709,-10.196 L 9.184,-10.168 L 8.693,-10.092 L 8.182,-9.998 L 7.671,-9.889 L 7.193,-9.766 L 6.716,-9.596 L 6.252,-9.411 L 5.803,-9.208 L 5.358,-8.976 L 4.923,-8.73 L 4.526,-8.47 L 4.124,-8.191 L 3.722,-7.884 L 3.348,-7.557 L 3.013,-7.217 L 2.672,-6.881 L 2.346,-6.508 L 2.038,-6.106 L 1.745,-5.704 L 1.499,-5.306 L 1.234,-4.871 L 1.022,-4.427 L 0.804,-3.977 L 0.62,-3.514 L 0.449,-3.036 L 0.307,-2.559 L 0.218,-2.062 L 0.123,-1.556 L 0.061,-1.05 L 0.014,-0.525 L 0,0 z"
           id="path45"
           style="fill:#0d3d92;fill-opacity:1;fill-rule:nonzero;stroke:none" />
      </g>
      <g
         transform="matrix(1.25,0,0,-1.25,171.34482,199.44049)"
         id="g47">
        <path
           d="M 0,0 L 0,6.791 L 0.17,6.389 L 0.322,5.992 L 0.463,5.604 L 0.601,5.188 L 0.724,4.772 L 0.832,4.356 L 0.941,3.94 L 1.031,3.519 L 1.092,3.088 L 1.173,2.658 L 1.234,2.223 L 1.282,1.778 L 1.324,1.343 L 1.357,0.894 L 1.372,0.449 L 1.372,0 L 1.372,-0.445 L 1.357,-0.894 L 1.324,-1.343 L 1.282,-1.769 L 1.234,-2.204 L 1.173,-2.634 L 1.092,-3.05 L 1.031,-3.481 L 0.941,-3.916 L 0.832,-4.318 L 0.724,-4.734 L 0.601,-5.15 L 0.463,-5.552 L 0.322,-5.935 L 0.17,-6.337 L 0.014,-6.739 L -0.156,-7.113 L -0.341,-7.496 L -0.511,-7.884 L -0.709,-8.253 L -0.913,-8.607 L -1.13,-8.962 L -1.362,-9.317 L -1.594,-9.672 L -1.807,-10.012 L -2.053,-10.353 L -2.317,-10.674 L -2.577,-11 L -2.857,-11.308 L -3.136,-11.62 L -3.396,-11.927 L -3.689,-12.235 L -4.001,-12.528 L -4.308,-12.793 L -4.616,-13.067 L -4.928,-13.346 L -5.25,-13.611 L -5.576,-13.857 L -5.931,-14.103 L -6.252,-14.335 L -6.607,-14.566 L -6.962,-14.784 L -7.316,-14.997 L -7.676,-15.214 L -8.059,-15.399 L -8.428,-15.583 L -8.816,-15.753 L -9.184,-15.924 L -9.586,-16.094 L -9.988,-16.25 L -10.376,-16.387 L -10.792,-16.51 L -11.194,-16.633 L -11.611,-16.761 L -12.027,-16.851 L -12.443,-16.945 L -12.878,-17.021 L -13.294,-17.082 L -13.725,-17.144 L -14.174,-17.191 L -14.59,-17.238 L -15.035,-17.267 L -15.484,-17.286 L -15.933,-17.286 L -16.378,-17.286 L -16.827,-17.267 L -17.276,-17.238 L -17.693,-17.191 L -18.142,-17.144 L -18.572,-17.082 L -18.988,-17.021 L -19.419,-16.945 L -19.84,-16.851 L -20.256,-16.761 L -20.672,-16.633 L -21.074,-16.51 L -21.49,-16.387 L -21.873,-16.25 L -22.275,-16.094 L -22.663,-15.924 L -23.051,-15.753 L -23.434,-15.583 L -23.803,-15.399 L -24.191,-15.214 L -24.531,-14.997 L -24.9,-14.784 L -25.255,-14.566 L -25.609,-14.335 L -25.936,-14.103 L -26.276,-13.857 L -26.617,-13.611 L -26.938,-13.346 L -27.265,-13.067 L -27.558,-12.793 L -27.865,-12.528 L -28.173,-12.235 L -28.466,-11.927 L -28.731,-11.62 L -29.005,-11.308 L -29.284,-11 L -29.549,-10.674 L -29.809,-10.353 L -30.055,-10.012 L -30.273,-9.672 L -30.504,-9.317 L -30.736,-8.962 L -30.954,-8.607 L -31.152,-8.253 L -31.356,-7.884 L -31.54,-7.496 L -31.71,-7.113 L -31.881,-6.739 L -32.032,-6.337 L -32.188,-5.935 L -32.325,-5.552 L -32.467,-5.15 L -32.59,-4.734 L -32.699,-4.318 L -32.803,-3.916 L -32.897,-3.481 L -32.973,-3.05 L -33.035,-2.634 L -33.096,-2.204 L -33.143,-1.769 L -33.191,-1.343 L -33.224,-0.894 L -33.238,-0.445 L -33.238,0 L -33.238,0.449 L -33.224,0.894 L -33.191,1.357 L -33.143,1.792 L -33.096,2.237 L -33.035,2.672 L -32.973,3.102 L -32.897,3.538 L -32.803,3.968 L -32.699,4.37 L -32.59,4.786 L -32.467,5.202 L -32.325,5.618 L -32.188,6.006 L -32.032,6.408 L -31.862,6.81 L -31.862,0 L -31.862,-0.416 L -31.847,-0.832 L -31.814,-1.234 L -31.772,-1.636 L -31.725,-2.034 L -31.677,-2.436 L -31.602,-2.819 L -31.554,-3.206 L -31.46,-3.59 L -31.37,-3.992 L -31.261,-4.346 L -31.152,-4.734 L -31.029,-5.103 L -30.892,-5.477 L -30.75,-5.831 L -30.613,-6.2 L -30.443,-6.555 L -30.287,-6.91 L -30.117,-7.236 L -29.951,-7.591 L -29.748,-7.931 L -29.549,-8.253 L -29.346,-8.579 L -29.133,-8.901 L -28.915,-9.208 L -28.698,-9.534 L -28.22,-10.121 L -27.709,-10.707 L -27.203,-11.265 L -26.645,-11.771 L -26.059,-12.282 L -25.458,-12.746 L -25.146,-12.977 L -24.824,-13.195 L -24.498,-13.408 L -24.191,-13.611 L -23.85,-13.81 L -23.51,-13.994 L -23.174,-14.164 L -22.848,-14.335 L -22.493,-14.505 L -22.124,-14.661 L -21.769,-14.812 L -21.415,-14.954 L -21.041,-15.077 L -20.672,-15.2 L -20.284,-15.323 L -19.915,-15.418 L -19.527,-15.508 L -19.144,-15.583 L -18.757,-15.664 L -18.355,-15.725 L -17.953,-15.787 L -17.555,-15.834 L -17.168,-15.862 L -16.751,-15.895 L -16.335,-15.91 L -15.933,-15.91 L -15.531,-15.91 L -15.115,-15.895 L -14.699,-15.862 L -14.311,-15.834 L -13.909,-15.787 L -13.507,-15.725 L -13.124,-15.664 L -12.722,-15.583 L -12.334,-15.508 L -11.951,-15.418 L -11.577,-15.323 L -11.194,-15.2 L -10.821,-15.077 L -10.452,-14.954 L -10.097,-14.812 L -9.742,-14.661 L -9.374,-14.505 L -9.019,-14.335 L -8.693,-14.164 L -8.338,-13.994 L -7.997,-13.81 L -7.676,-13.611 L -7.349,-13.408 L -7.023,-13.195 L -6.716,-12.977 L -6.408,-12.746 L -5.808,-12.282 L -5.221,-11.771 L -4.663,-11.265 L -4.138,-10.707 L -3.646,-10.121 L -3.183,-9.534 L -2.951,-9.208 L -2.734,-8.901 L -2.516,-8.579 L -2.303,-8.253 L -2.119,-7.931 L -1.915,-7.591 L -1.759,-7.236 L -1.575,-6.91 L -1.424,-6.555 L -1.253,-6.2 L -1.111,-5.831 L -0.974,-5.477 L -0.837,-5.103 L -0.709,-4.734 L -0.605,-4.346 L -0.497,-3.992 L -0.402,-3.59 L -0.326,-3.206 L -0.251,-2.819 L -0.189,-2.436 L -0.123,-2.034 L -0.08,-1.636 L -0.047,-1.234 L -0.019,-0.832 L 0,-0.416 L 0,0 z"
           id="path49"
           style="fill:#0d3d92;fill-opacity:1;fill-rule:nonzero;stroke:none" />
      </g>
      <g
         transform="matrix(1.25,0,0,-1.25,-122.36793,303.94849)"
         id="g51">
        <g
           id="g53">
          <g
             id="g59">
            <g
               id="g61">
              <path
                 d="M 212.279,83.625 L 212.279,83.621 C 212.279,79.936 215.273,76.943 218.961,76.943 L 218.961,76.943 C 222.65,76.943 225.643,79.936 225.643,83.621 L 225.643,83.621 C 225.643,87.314 222.65,90.308 218.961,90.308 L 218.961,90.308 C 215.273,90.308 212.279,87.314 212.279,83.625"
                 id="path71"
                 style="fill:url(#radialGradient2498);stroke:none" />
            </g>
          </g>
        </g>
      </g>
    </g>
  </g>
</svg>
